<svg width="30" height="31" viewBox="0 0 30 31" fill="none" xmlns="http://www.w3.org/2000/svg">
<circle cx="15" cy="15" r="15" fill="#3E606F"/>
<g clip-path="url(#clip0_240_240)">
<path d="M2.99997 18.4872C2.99949 19.2124 3.07022 19.9359 3.21114 20.6471C3.23276 20.7566 3.25618 20.8657 3.28141 20.9743C3.29618 21.0396 3.31168 21.1046 3.32789 21.1694C3.33834 21.2115 3.34916 21.2536 3.36033 21.2957C3.76135 22.818 4.48199 24.236 5.47362 25.4542C6.46525 26.6723 7.70484 27.6623 9.10877 28.3572C9.56951 28.5856 10.0459 28.7804 10.5344 28.9402C10.6086 28.9645 10.6832 28.9881 10.7581 29.0109H10.7585C11.7834 29.3222 12.8483 29.4799 13.9188 29.4789C14.0724 29.4789 14.2237 29.4754 14.3729 29.4684C14.7767 29.4506 15.179 29.4056 15.5769 29.3338C20.4666 28.4443 22.8619 23.5971 24.8377 18.4872C24.8867 18.3606 24.9349 18.2348 24.9822 18.1099C24.9938 18.0791 25.0053 18.0482 25.0168 18.0174C30.2723 4.02785 24.5729 0.487656 13.9188 7.49549C8.87057 10.8159 2.99997 12.4167 2.99997 18.4872Z" fill="#D9D9D9"/>
<path d="M10.547 25.0513L10.5969 24.999C10.5891 24.9914 9.80936 24.2225 9.51238 22.7859C9.2381 21.459 9.33125 19.2743 11.3326 16.4015C12.8675 14.1982 13.4886 12.2733 13.1787 10.6801C12.9065 9.28051 11.9806 8.66568 11.9712 8.65964L11.9322 8.72061C11.9412 8.7265 12.8429 9.32685 13.1084 10.6963C13.4134 12.269 12.796 14.1745 11.2736 16.3599C10.3832 17.6379 9.79048 18.8895 9.51187 20.0799C9.28861 21.0338 9.26537 21.9507 9.44279 22.8053C9.74528 24.2622 10.539 25.0436 10.547 25.0513Z" fill="#F2F2F2"/>
<path d="M24.0366 16.5468C24.3867 17.0456 24.7026 17.5679 24.9822 18.1099C24.9937 18.0791 25.0053 18.0483 25.0168 18.0174C24.7424 17.4939 24.4347 16.9887 24.0957 16.5051C22.5732 14.3194 21.9559 12.4142 22.2608 10.8416C22.5264 9.47184 23.428 8.87147 23.437 8.86566L23.3981 8.80472C23.3887 8.81089 22.4626 9.42577 22.1905 10.8253C21.8806 12.4186 22.5019 14.3434 24.0366 16.5468Z" fill="#F2F2F2"/>
<path d="M18.1878 28.425L18.2377 28.3727C18.2279 28.3632 17.2448 27.3941 16.8701 25.5832C16.5241 23.911 16.641 21.1578 19.1626 17.5383C20.2161 16.0259 20.9346 14.5971 21.2981 13.2914C21.595 12.2245 21.6579 11.2327 21.4849 10.3436C21.143 8.58567 19.9808 7.81392 19.9691 7.80634L19.93 7.8673C19.9415 7.87474 21.0794 8.63201 21.4146 10.3598C21.7993 12.3421 21.0217 14.7433 19.1036 17.4966C17.9835 19.1044 17.2379 20.6788 16.8875 22.176C16.6067 23.3755 16.5775 24.5283 16.8005 25.6027C17.1807 27.4338 18.1778 28.4153 18.1878 28.425Z" fill="white"/>
<path d="M20.6073 11.8552C19.0666 11.8552 17.8176 10.5979 17.8176 9.04691C17.8176 7.49593 19.0666 6.23862 20.6073 6.23862C22.148 6.23862 23.397 7.49593 23.397 9.04691C23.397 10.5979 22.148 11.8552 20.6073 11.8552Z" fill="white"/>
<path d="M19.9496 11.6632C20.7013 11.6632 21.4362 11.4388 22.0613 11.0183C22.6863 10.5979 23.1735 10.0003 23.4612 9.30111C23.7489 8.60194 23.8242 7.8326 23.6775 7.09036C23.5309 6.34812 23.1688 5.66634 22.6373 5.13121C22.1057 4.59609 21.4284 4.23166 20.6911 4.08402C19.9538 3.93638 19.1895 4.01215 18.495 4.30176C17.8005 4.59136 17.2068 5.08179 16.7892 5.71103C16.3715 6.34027 16.1486 7.08005 16.1486 7.83682C16.1497 8.85128 16.5505 9.82385 17.2631 10.5412C17.9757 11.2585 18.9418 11.662 19.9496 11.6632ZM19.9496 4.08305C20.6871 4.08305 21.408 4.3032 22.0212 4.71567C22.6344 5.12814 23.1124 5.7144 23.3946 6.40032C23.6769 7.08623 23.7507 7.84099 23.6068 8.56916C23.4629 9.29732 23.1078 9.96618 22.5863 10.4912C22.0648 11.0161 21.4004 11.3736 20.677 11.5185C19.9537 11.6633 19.2039 11.589 18.5226 11.3049C17.8412 11.0208 17.2588 10.5396 16.8491 9.92232C16.4393 9.30501 16.2206 8.57925 16.2207 7.83682C16.2218 6.84161 16.615 5.88748 17.3141 5.18375C18.0131 4.48003 18.9609 4.08418 19.9496 4.08305Z" fill="white"/>
<path d="M17.8176 17.7458C16.5399 17.7458 15.5042 16.7031 15.5042 15.4169C15.5042 14.1308 16.5399 13.0881 17.8176 13.0881C19.0953 13.0881 20.131 14.1308 20.131 15.4169C20.131 16.7031 19.0953 17.7458 17.8176 17.7458Z" fill="white"/>
<path d="M18.997 25.8282C17.7193 25.8282 16.6836 24.7855 16.6836 23.4994C16.6836 22.2132 17.7193 21.1705 18.997 21.1705C20.2746 21.1705 21.3104 22.2132 21.3104 23.4994C21.3104 24.7855 20.2746 25.8282 18.997 25.8282Z" fill="white"/>
<path d="M3.32793 21.1695C3.35207 21.0439 3.37694 20.9201 3.40252 20.798C3.40257 20.798 3.40262 20.798 3.40266 20.798C3.40271 20.7979 3.40275 20.7979 3.40278 20.7979C3.40282 20.7978 3.40284 20.7978 3.40286 20.7978C3.40288 20.7977 3.40289 20.7977 3.40289 20.7976C3.72649 19.2519 4.16252 17.9844 4.67892 16.9505L6.0472 16.4768L5.01585 16.3284C5.43278 15.6163 5.89224 15.033 6.38053 14.5596L8.89367 14.8487L6.99674 14.0303C10.4829 11.3905 15.0533 13.5108 16.2987 14.1772C16.4695 14.2683 16.5776 14.3325 16.6122 14.3532C16.6126 14.3532 16.6126 14.3532 16.6129 14.3535C16.6205 14.3582 16.6241 14.3604 16.6241 14.3604L15.9171 14.7301H15.9167L3.36036 21.2957L3.32793 21.1695Z" fill="#6C63FF"/>
<path d="M3.32791 21.1694C3.31169 21.1045 3.2962 21.0395 3.28142 20.9743C3.31818 20.9202 3.35854 20.8611 3.4025 20.798C3.40255 20.798 3.4026 20.798 3.40264 20.798C3.40269 20.7979 3.40273 20.7979 3.40276 20.7979C3.40279 20.7978 3.40282 20.7978 3.40284 20.7978C3.40286 20.7977 3.40286 20.7977 3.40286 20.7976C4.85078 18.7135 10.1581 11.9038 16.2716 14.2153H16.272C16.3851 14.2581 16.4985 14.3041 16.6122 14.3531C16.6125 14.3531 16.6125 14.3531 16.6129 14.3535C16.7163 14.3981 16.8199 14.4455 16.9235 14.4957C16.9761 14.5207 17.0284 14.5469 17.081 14.5733C17.1268 14.5966 17.1722 14.6201 17.2179 14.6444C17.2179 14.6444 17.4781 14.7101 17.7696 14.9575C18.3423 15.4443 19.0363 16.6338 18.1167 19.4111C18.1167 19.4111 17.3001 21.7121 17.7084 22.7808C18.1167 23.8488 15.5852 25.0815 14.8511 22.7808C14.1163 20.4795 13.8709 18.2605 13.8709 18.2605C13.8709 18.2605 13.0262 20.0521 13.1095 21.8489C13.1437 22.5853 13.0785 23.3224 12.8814 24.0316C12.8612 24.106 12.8392 24.1804 12.8172 24.2558C12.5517 25.1537 12.1372 26.3087 11.5268 27.4256C11.2392 27.9579 10.9072 28.4645 10.5344 28.9402C10.0459 28.7804 9.56952 28.5856 9.10879 28.3572C7.70485 27.6623 6.46527 26.6723 5.47364 25.4542C4.482 24.236 3.76137 22.818 3.36034 21.2957L3.32791 21.1694Z" fill="#3F3D56"/>
<path d="M16.9734 15.4663L17.2999 12.7543L15.9121 14.7266L16.9734 15.4663Z" fill="#3F3D56"/>
<path d="M17.685 15.6617L18.0115 12.9496L16.6237 14.922L17.685 15.6617Z" fill="#3F3D56"/>
</g>
<defs>
<clipPath id="clip0_240_240">
<rect width="24" height="27" fill="white" transform="matrix(-1 0 0 1 27 4)"/>
</clipPath>
</defs>
</svg>
