<svg width="311" height="192" viewBox="0 0 311 192" fill="none" xmlns="http://www.w3.org/2000/svg">
<g clip-path="url(#clip0_393_438)">
<g filter="url(#filter0_d_393_438)">
<path d="M196.85 168.642L193.218 179.561L195.297 187.398H191.414L189.861 178.491L190.832 165.289L196.85 168.642Z" fill="#3F3D56"/>
</g>
<path d="M268.866 120.349C262.306 126.727 261.504 136.532 261.504 136.532C261.504 136.532 271.34 135.996 277.901 129.618C284.462 123.239 285.263 113.435 285.263 113.435C285.263 113.435 275.427 113.971 268.866 120.349Z" fill="#FCFFF5"/>
<path d="M259.936 192L259.541 191.589C259.603 191.53 265.775 185.492 268.126 174.211C270.297 163.791 269.559 146.636 253.718 124.077C241.568 106.776 236.651 91.6605 239.104 79.1502C241.259 68.1597 248.589 63.3317 248.662 63.2843L248.971 63.763C248.9 63.8093 241.763 68.5236 239.661 79.2774C237.247 91.6265 242.134 106.589 254.185 123.75C261.233 133.786 265.924 143.615 268.13 152.962C269.897 160.452 270.081 167.653 268.676 174.363C266.282 185.804 259.999 191.939 259.936 192Z" fill="#FCFFF5"/>
<path d="M257.089 77.4818C285.445 77.4818 308.433 73.5434 308.433 68.6852C308.433 63.827 285.445 59.8886 257.089 59.8886C228.732 59.8886 205.745 63.827 205.745 68.6852C205.745 73.5434 228.732 77.4818 257.089 77.4818Z" fill="#FCFFF5"/>
<path d="M247.533 74.918C211.945 74.918 184.067 70.0381 184.067 63.8085C184.067 57.5789 211.945 52.699 247.533 52.699C283.122 52.699 311 57.5789 311 63.8085C311 70.0381 283.122 74.918 247.533 74.918ZM247.533 53.2687C213.44 53.2687 184.637 58.0953 184.637 63.8085C184.637 69.5217 213.44 74.3483 247.533 74.3483C281.627 74.3483 310.43 69.5217 310.43 63.8085C310.43 58.0953 281.627 53.2687 247.533 53.2687Z" fill="#FCFFF5"/>
<path d="M69.3837 191.715L68.9883 191.305C69.0666 191.23 76.8481 183.62 79.8136 169.4C82.5524 156.269 81.6273 134.65 61.6678 106.227C53.3282 94.3515 47.641 83.1313 44.7642 72.8784C42.4136 64.5008 41.9159 56.7128 43.285 49.7308C45.9916 35.9266 55.1913 29.8664 55.2839 29.8069L55.593 30.2856C55.5023 30.3441 46.4949 36.2905 43.8413 49.8579C40.7969 65.4238 46.9518 84.2792 62.1349 105.9C71.0009 118.525 76.9027 130.888 79.6766 142.645C81.8986 152.064 82.1301 161.117 80.3646 169.553C77.3554 183.931 69.4631 191.639 69.3837 191.715Z" fill="#FCFFF5"/>
<path d="M50.2322 61.6007C62.4277 61.6007 72.3141 51.7276 72.3141 39.5485C72.3141 27.3694 62.4277 17.4963 50.2322 17.4963C38.0367 17.4963 28.1503 27.3694 28.1503 39.5485C28.1503 51.7276 38.0367 61.6007 50.2322 61.6007Z" fill="#FCFFF5"/>
<path d="M55.4384 60.0927C49.4878 60.0927 43.6708 58.3305 38.723 55.029C33.7753 51.7275 29.9189 47.0349 27.6417 41.5446C25.3645 36.0544 24.7687 30.0131 25.9296 24.1847C27.0904 18.3562 29.9559 13.0025 34.1637 8.80041C38.3714 4.59835 43.7323 1.7367 49.5686 0.577343C55.4049 -0.582014 61.4544 0.0129897 66.952 2.28712C72.4497 4.56124 77.1487 8.41234 80.4547 13.3534C83.7607 18.2945 85.5252 24.1037 85.5253 30.0463C85.5162 38.0123 82.3435 45.6495 76.7031 51.2823C71.0626 56.9151 63.4152 60.0836 55.4384 60.0927V60.0927ZM55.4384 0.569719C49.6006 0.569705 43.8939 2.29847 39.04 5.5374C34.186 8.77632 30.4028 13.3799 28.1688 18.7661C25.9347 24.1522 25.3502 30.079 26.4891 35.7969C27.628 41.5148 30.4392 46.7671 34.5671 50.8895C38.695 55.0119 43.9544 57.8192 49.68 58.9566C55.4056 60.0939 61.3404 59.5102 66.7338 57.2792C72.1272 55.0482 76.7371 51.2701 79.9804 46.4226C83.2237 41.5752 84.9548 35.8762 84.9548 30.0463C84.9459 22.2313 81.8333 14.739 76.2998 9.21298C70.7664 3.68698 63.2639 0.578575 55.4384 0.569719V0.569719Z" fill="#FCFFF5"/>
<path d="M72.3139 107.856C82.4273 107.856 90.6258 99.669 90.6258 89.5693C90.6258 79.4696 82.4273 71.2821 72.3139 71.2821C62.2006 71.2821 54.0021 79.4696 54.0021 89.5693C54.0021 99.669 62.2006 107.856 72.3139 107.856Z" fill="#FCFFF5"/>
<path d="M62.9786 171.324C73.092 171.324 81.2905 163.136 81.2905 153.037C81.2905 142.937 73.092 134.749 62.9786 134.749C52.8652 134.749 44.6667 142.937 44.6667 153.037C44.6667 163.136 52.8652 171.324 62.9786 171.324Z" fill="#FCFFF5"/>
<path d="M262.668 191.955H200.587C200.587 191.955 199.329 173.523 206.774 173.314C214.22 173.104 213.381 181.482 222.714 169.962C232.047 158.443 243.373 159.071 244.841 165.878C246.309 172.685 242.009 178.131 249.874 176.455C257.739 174.78 269.065 179.178 262.668 191.955Z" fill="#FCFFF5"/>
<path d="M230.58 191.959L230.37 191.95C230.859 179.815 233.404 172.018 235.453 167.614C237.677 162.833 239.821 160.897 239.842 160.878L239.982 161.034C239.961 161.053 237.842 162.97 235.635 167.719C233.598 172.104 231.066 179.869 230.58 191.959Z" fill="#91AA9D"/>
<path d="M253.048 191.984L252.847 191.925C254.408 186.782 257.223 182.106 261.038 178.316L261.179 178.471C257.392 182.235 254.598 186.878 253.048 191.984V191.984Z" fill="#91AA9D"/>
<path d="M210.365 191.969L210.157 191.94C210.834 187.391 210.118 182.743 208.103 178.607C207.276 176.872 206.182 175.278 204.86 173.882L205.005 173.73C206.345 175.143 207.453 176.758 208.291 178.514C210.325 182.688 211.048 187.378 210.365 191.969V191.969Z" fill="#91AA9D"/>
<path d="M305.211 191.385H0V191.955H305.211V191.385Z" fill="#3F3D56"/>
<path d="M31.9806 191.895L31.8374 191.601C31.7938 191.512 27.5051 182.559 29.8963 173.731C32.2876 164.904 40.511 159.331 40.5938 159.276L40.8655 159.094L41.0087 159.388C41.0523 159.477 45.341 168.43 42.9497 177.258C40.5585 186.085 32.3351 191.658 32.2523 191.713L31.9806 191.895ZM40.6354 159.944C39.1957 160.99 32.535 166.172 30.447 173.88C28.3574 181.594 31.4951 189.418 32.2107 191.045C33.6504 189.999 40.311 184.817 42.399 177.109C44.4887 169.395 41.351 161.571 40.6354 159.944V159.944Z" fill="#3F3D56"/>
<path d="M20.9232 177.183C23.3142 186.01 31.5038 191.476 31.5038 191.476C31.5038 191.476 35.8168 182.632 33.4259 173.806C31.0349 164.979 22.8453 159.513 22.8453 159.513C22.8453 159.513 18.5322 168.357 20.9232 177.183Z" fill="#3F3D56"/>
<path d="M32.1097 191.771L31.7832 191.753C31.6838 191.748 21.7647 191.138 15.203 184.759C8.64156 178.38 7.76369 168.494 7.75561 168.395L7.729 168.07L8.05547 168.088C8.15492 168.093 18.074 168.704 24.6356 175.082C31.1971 181.461 32.075 191.347 32.0831 191.446L32.1097 191.771ZM8.36078 168.684C8.57596 170.449 9.8714 178.781 15.6011 184.35C21.3307 189.921 29.7055 190.99 31.4779 191.157C31.2627 189.392 29.9673 181.061 24.2375 175.491C18.5036 169.916 10.1324 168.85 8.36078 168.684V168.684Z" fill="#3F3D56"/>
<path d="M39.161 175.286C32.6002 181.665 31.7988 191.469 31.7988 191.469C31.7988 191.469 41.6347 190.933 48.1955 184.555C54.7564 178.177 55.5577 168.372 55.5577 168.372C55.5577 168.372 45.7219 168.908 39.161 175.286Z" fill="#3F3D56"/>
<path d="M31.6621 158.056C34.0251 158.056 35.9407 156.143 35.9407 153.783C35.9407 151.424 34.0251 149.511 31.6621 149.511C29.299 149.511 27.3834 151.424 27.3834 153.783C27.3834 156.143 29.299 158.056 31.6621 158.056Z" fill="#6C63FF"/>
<path d="M168.432 95.0796C170.951 90.8301 175.933 90.632 175.933 90.632C175.933 90.632 180.788 90.012 183.902 96.4841C186.805 102.517 190.812 108.341 184.547 109.753L183.416 106.236L182.715 110.015C181.823 110.079 180.929 110.094 180.035 110.061C173.326 109.845 166.937 110.124 167.143 107.72C167.416 104.524 166.009 99.1685 168.432 95.0796Z" fill="#F76280"/>
<path d="M186.88 141.055C186.88 141.055 188.787 145.852 185.291 146.384C181.795 146.915 182.991 141.315 182.991 141.315L186.88 141.055Z" fill="#FFB8B8"/>
<path d="M181.397 112.189L181.238 110.924C181.948 110.782 182.972 111.389 183.235 112.064C183.717 113.302 184.609 116.517 185.511 119.671C186.974 124.786 188.182 132.85 188.106 133.735C188.038 135.274 187.886 136.807 187.651 138.329C187.275 140.614 186.784 140.096 187.373 140.86C187.542 141.067 187.648 141.319 187.678 141.585C187.708 141.851 187.66 142.12 187.541 142.359C187.541 142.359 184.346 140.778 182.667 143.01C182.37 142.725 182.136 142.381 181.981 142C181.736 141.385 181.122 140.917 181.591 140.303C182.061 139.69 180.44 138.482 181.083 137.23C181.726 135.979 181.898 136.053 181.433 135.241C180.968 134.428 180.097 129.44 180.097 129.44L181.397 112.189Z" fill="#D0CDE1"/>
<path d="M186.244 134.973C186.244 134.973 197.405 136.083 195.417 140.582C193.429 145.082 193.429 145.479 193.429 145.479L183.622 162.948L180.442 159.64C180.442 159.64 184.02 151.831 184.02 149.317C184.02 146.802 187.731 142.435 187.731 142.435L181.237 141.906L186.244 134.973Z" fill="#FFB8B8"/>
<path d="M169.178 140.582C169.178 140.582 178.189 143.494 183.622 142.435C183.622 142.435 182.032 137.406 187.731 135.156L174.876 133.568" fill="#2F2E41"/>
<path d="M182.827 160.566C182.827 160.566 186.405 160.037 185.478 163.213L183.622 169.565C183.622 169.565 186.008 176.05 182.297 174.594C178.587 173.138 176.201 164.139 176.201 164.139C176.201 164.139 174.611 157.257 176.201 157.257C177.792 157.257 182.827 156.199 182.297 157.257C181.767 158.316 182.827 160.566 182.827 160.566Z" fill="#2F2E41"/>
<g filter="url(#filter1_d_393_438)">
<path d="M183.965 124.288L188.51 122.749L185.084 122.266C186.322 120.155 187.847 118.219 189.617 116.515L197.964 117.455L191.663 114.793C205.193 104.763 223.641 115.867 223.641 115.867L179.378 138.525C180.48 132.707 182.057 128.028 183.965 124.288Z" fill="#6C63FF"/>
</g>
<g filter="url(#filter2_d_393_438)">
<path d="M134.276 138.773C134.276 138.773 124.421 131.458 114.032 141.483C103.644 151.507 95.3867 141.483 95.3867 141.483L88.7275 149.069L91.6575 152.32L86.5966 151.507L81.5356 158.28C81.5356 158.28 103.644 170.201 117.495 150.152C131.346 130.104 150.258 149.069 150.258 149.069L134.276 138.773Z" fill="#6C63FF"/>
</g>
<g filter="url(#filter3_d_393_438)">
<path d="M195.453 186.234L198.015 190.708C198.015 190.708 191.485 191.431 191.485 189.985C191.456 188.972 191.301 187.97 191.026 187.011L195.453 186.234Z" fill="#2F2E41"/>
</g>
<g filter="url(#filter4_d_393_438)">
<path d="M143.511 167.616L158.312 178.617L160.742 186.234L155.882 184.965L150.911 177.665L135.116 169.52L143.511 167.616Z" fill="#3F3D56"/>
</g>
<g filter="url(#filter5_d_393_438)">
<path d="M160.559 185.989C160.559 185.989 161.289 190.889 159.83 190.889C158.371 190.889 153.753 185.989 153.753 185.989L154.604 183.907L160.559 185.989Z" fill="#2F2E41"/>
</g>
<g filter="url(#filter6_d_393_438)">
<path d="M205.455 158.057L217.294 165.525L221.311 182.743L217.505 181.498C217.505 181.498 217.083 165.525 209.894 165.318C202.706 165.11 192.135 164.903 191.078 158.887C190.021 152.871 205.455 158.057 205.455 158.057Z" fill="#3F3D56"/>
</g>
<path d="M220.24 181.589L221.311 183.215L220.776 187.398C220.776 187.398 213.816 185.074 214.352 183.215C214.887 181.356 216.493 181.589 216.493 181.589H220.24Z" fill="#2F2E41"/>
<g filter="url(#filter7_d_393_438)">
<path d="M156.082 156.775C156.082 156.775 153.258 167.008 135.011 170.056C135.011 170.056 124.258 169.947 126.213 178.438C128.169 186.928 128.494 187.69 128.494 187.69L123.933 188.561L122.303 168.641L133.273 154.816L156.082 156.775Z" fill="#3F3D56"/>
</g>
<g filter="url(#filter8_d_393_438)">
<path d="M128.31 186.234C128.31 186.234 130.924 189.833 130.383 190.298C129.842 190.762 125.154 191.459 124.793 190.065C124.433 188.672 124.793 186.35 124.793 186.35L128.31 186.234Z" fill="#2F2E41"/>
</g>
<g filter="url(#filter9_d_393_438)">
<path d="M145.746 164.277C149.035 164.283 152.238 163.209 154.872 161.218C157.499 162.355 160.543 163.609 163.965 164.918C164.479 165.114 165 165.311 165.531 165.511C167.244 166.152 169.043 166.801 170.927 167.459C171.546 167.674 172.173 167.891 172.808 168.106C175.273 168.943 177.866 169.776 180.585 170.605C181.229 170.8 181.88 170.995 182.54 171.187C182.701 171.237 182.863 171.284 183.027 171.331C201.1 176.612 208.947 158.324 211.75 148.797C211.822 148.548 211.895 148.303 211.961 148.058C212.59 145.712 212.843 143.278 212.711 140.851C212.437 134.919 215.212 129.005 215.212 129.005C215.847 134.066 216.925 139.059 218.432 143.928C220.844 151.524 229.161 147.454 227.82 143.928C226.479 140.4 229.161 132.804 229.161 132.804C233.72 118.966 226.209 117.066 226.209 117.066C202.431 104.39 181.573 136.108 179.679 139.092L153.043 135.218C150.996 134.094 148.724 133.458 146.397 133.357C144.071 133.257 141.753 133.696 139.62 134.64C137.486 135.583 135.595 137.008 134.088 138.804C132.582 140.6 131.501 142.72 130.927 145.003C130.354 147.286 130.304 149.671 130.781 151.976C131.257 154.282 132.248 156.447 133.678 158.306C135.107 160.165 136.937 161.67 139.029 162.705C141.12 163.739 143.418 164.277 145.746 164.277V164.277Z" fill="#3F3D56"/>
</g>
<path d="M224.874 121.07L225.97 110.598L221.311 118.214L224.874 121.07Z" fill="#3F3D56"/>
<path d="M227.203 121.07L228.3 111.761L223.641 118.532L227.203 121.07Z" fill="#3F3D56"/>
<path d="M155.661 140.318L151.95 148.391C151.95 148.391 149.167 151.17 146.119 162.286C143.071 173.403 142.409 173.006 142.409 173.006L147.047 173.933C147.047 173.933 152.215 161.889 153.938 160.963C155.661 160.037 157.781 151.567 157.781 151.567L163.877 143.891L162.022 139.788L155.661 140.318Z" fill="#FFB8B8"/>
<path d="M174.876 133.568L175.406 130.789L174.081 128.142L160.166 131.054L154.468 141.641C154.468 141.641 161.624 138.333 162.684 145.611L169.178 140.582" fill="#2F2E41"/>
<path d="M142.806 171.153C142.806 171.153 147.444 169.962 148.505 171.815C149.565 173.668 149.3 179.756 149.3 179.888C149.3 180.02 147.709 181.344 147.179 181.344C146.649 181.344 143.336 187.299 138.831 185.182C134.325 183.064 142.806 171.153 142.806 171.153Z" fill="#2F2E41"/>
<path d="M176.201 106.174C173.347 106.174 171.033 103.863 171.033 101.012C171.033 98.1616 173.347 95.8508 176.201 95.8508C179.056 95.8508 181.37 98.1616 181.37 101.012C181.37 103.863 179.056 106.174 176.201 106.174Z" fill="#FFB8B8"/>
<path d="M171.961 102.071C171.961 102.071 170.9 107.629 169.973 108.423C169.045 109.217 176.996 110.408 176.996 110.408C176.996 110.408 175.804 106.571 177.261 104.585C178.719 102.6 171.961 102.071 171.961 102.071Z" fill="#FFB8B8"/>
<path d="M158.046 133.568C158.949 133.568 161.247 133.195 163.823 132.715C166.052 132.299 168.491 131.805 170.416 131.406C172.476 130.977 173.949 130.657 173.949 130.657C173.949 130.657 174.479 133.965 176.201 133.568C177.686 133.227 182.121 117.755 183.32 113.479C183.408 113.167 183.391 112.834 183.272 112.533C183.153 112.231 182.939 111.976 182.662 111.807L176.57 108.092L175.009 108.688C175.009 108.688 172.372 106.653 170.841 106.612C169.31 106.571 166.66 106.173 166.66 106.173C166.66 106.173 163.612 106.438 163.082 108.688C162.552 110.938 162.287 124.966 160.299 127.481C158.311 129.995 155.528 133.568 158.046 133.568Z" fill="#D0CDE1"/>
<path d="M167.057 141.509C167.057 141.509 168.25 147.597 170.768 146.67C173.286 145.744 170.768 140.318 170.768 140.318L167.057 141.509Z" fill="#FFB8B8"/>
<path opacity="0.15" d="M161.492 127.084C161.492 127.084 162.789 130.175 163.823 132.715C166.052 132.299 168.491 131.806 170.416 131.406C170.277 131.04 170.083 130.698 169.84 130.392C168.913 129.333 169.443 129.069 169.443 129.069C170.238 127.481 169.575 125.363 169.575 125.363C171.166 121.128 168.78 115.834 168.78 115.834L161.492 127.084Z" fill="black"/>
<path d="M168.383 115.834C168.383 115.834 170.768 121.128 169.178 125.363C169.178 125.363 169.84 127.481 169.045 129.069C169.045 129.069 168.515 129.333 169.443 130.392C170.37 131.451 171.166 135.156 170.503 135.95C169.84 136.744 171.431 138.2 171.033 138.994C170.636 139.788 171.696 140.847 171.696 140.847C171.696 140.847 167.72 141.641 167.057 142.832C167.057 142.832 166.262 141.906 166.66 140.847C167.057 139.788 166.792 139.391 166.395 138.73C165.997 138.068 164.805 136.612 164.672 135.95C164.54 135.289 161.094 127.084 161.094 127.084L162.71 112.131L168.383 115.834Z" fill="#D0CDE1"/>
<path d="M175.323 94.2512C173.334 94.2512 171.721 92.6405 171.721 90.6535C171.721 88.6666 173.334 87.0559 175.323 87.0559C177.313 87.0559 178.926 88.6666 178.926 90.6535C178.926 92.6405 177.313 94.2512 175.323 94.2512Z" fill="#F76280"/>
<path d="M179.305 89.7068C179.305 88.8182 178.975 87.9611 178.38 87.3006C177.785 86.6401 176.966 86.2229 176.082 86.1293C176.208 86.116 176.334 86.1092 176.461 86.1091C177.416 86.1091 178.333 86.4881 179.008 87.1628C179.684 87.8375 180.063 88.7526 180.063 89.7068C180.063 90.6609 179.684 91.576 179.008 92.2507C178.333 92.9254 177.416 93.3044 176.461 93.3044C176.334 93.3043 176.208 93.2976 176.082 93.2842C176.966 93.1907 177.785 92.7734 178.38 92.1129C178.975 91.4524 179.305 90.5953 179.305 89.7068V89.7068Z" fill="#F76280"/>
<path d="M169.546 94.67L174.468 92.0952L181.266 93.1483L182.672 99.3517L179.171 99.2172L178.193 96.938V99.1796L176.578 99.1175L175.64 95.4893L175.054 99.3517L169.311 99.2346L169.546 94.67Z" fill="#F76280"/>
<path d="M171.166 101.556C170.763 101.556 170.437 100.934 170.437 100.166C170.437 99.399 170.763 98.7769 171.166 98.7769C171.568 98.7769 171.894 99.399 171.894 100.166C171.894 100.934 171.568 101.556 171.166 101.556Z" fill="#FFB8B8"/>
<path d="M170.06 167.022C170.651 167.219 171.249 167.418 171.856 167.616L177.049 159.47L170.06 167.022Z" fill="#6C63FF"/>
<path d="M164.236 164.65C164.719 164.86 165.208 165.073 165.706 165.289L170.06 157.143L164.236 164.65Z" fill="#6C63FF"/>
<path d="M179.378 169.412C180.084 169.591 180.799 169.767 181.522 169.943L187.532 161.798L179.378 169.412Z" fill="#6C63FF"/>
</g>
<defs>
<filter id="filter0_d_393_438" x="185.861" y="165.289" width="14.9888" height="30.1091" filterUnits="userSpaceOnUse" color-interpolation-filters="sRGB">
<feFlood flood-opacity="0" result="BackgroundImageFix"/>
<feColorMatrix in="SourceAlpha" type="matrix" values="0 0 0 0 0 0 0 0 0 0 0 0 0 0 0 0 0 0 127 0" result="hardAlpha"/>
<feOffset dy="4"/>
<feGaussianBlur stdDeviation="2"/>
<feComposite in2="hardAlpha" operator="out"/>
<feColorMatrix type="matrix" values="0 0 0 0 0 0 0 0 0 0 0 0 0 0 0 0 0 0 0.25 0"/>
<feBlend mode="normal" in2="BackgroundImageFix" result="effect1_dropShadow_393_438"/>
<feBlend mode="normal" in="SourceGraphic" in2="effect1_dropShadow_393_438" result="shape"/>
</filter>
<filter id="filter1_d_393_438" x="175.378" y="110.598" width="52.2622" height="35.9273" filterUnits="userSpaceOnUse" color-interpolation-filters="sRGB">
<feFlood flood-opacity="0" result="BackgroundImageFix"/>
<feColorMatrix in="SourceAlpha" type="matrix" values="0 0 0 0 0 0 0 0 0 0 0 0 0 0 0 0 0 0 127 0" result="hardAlpha"/>
<feOffset dy="4"/>
<feGaussianBlur stdDeviation="2"/>
<feComposite in2="hardAlpha" operator="out"/>
<feColorMatrix type="matrix" values="0 0 0 0 0 0 0 0 0 0 0 0 0 0 0 0 0 0 0.25 0"/>
<feBlend mode="normal" in2="BackgroundImageFix" result="effect1_dropShadow_393_438"/>
<feBlend mode="normal" in="SourceGraphic" in2="effect1_dropShadow_393_438" result="shape"/>
</filter>
<filter id="filter2_d_393_438" x="77.5355" y="136.198" width="76.7229" height="33.6" filterUnits="userSpaceOnUse" color-interpolation-filters="sRGB">
<feFlood flood-opacity="0" result="BackgroundImageFix"/>
<feColorMatrix in="SourceAlpha" type="matrix" values="0 0 0 0 0 0 0 0 0 0 0 0 0 0 0 0 0 0 127 0" result="hardAlpha"/>
<feOffset dy="4"/>
<feGaussianBlur stdDeviation="2"/>
<feComposite in2="hardAlpha" operator="out"/>
<feColorMatrix type="matrix" values="0 0 0 0 0 0 0 0 0 0 0 0 0 0 0 0 0 0 0.25 0"/>
<feBlend mode="normal" in2="BackgroundImageFix" result="effect1_dropShadow_393_438"/>
<feBlend mode="normal" in="SourceGraphic" in2="effect1_dropShadow_393_438" result="shape"/>
</filter>
<filter id="filter3_d_393_438" x="187.026" y="186.234" width="14.9888" height="12.6546" filterUnits="userSpaceOnUse" color-interpolation-filters="sRGB">
<feFlood flood-opacity="0" result="BackgroundImageFix"/>
<feColorMatrix in="SourceAlpha" type="matrix" values="0 0 0 0 0 0 0 0 0 0 0 0 0 0 0 0 0 0 127 0" result="hardAlpha"/>
<feOffset dy="4"/>
<feGaussianBlur stdDeviation="2"/>
<feComposite in2="hardAlpha" operator="out"/>
<feColorMatrix type="matrix" values="0 0 0 0 0 0 0 0 0 0 0 0 0 0 0 0 0 0 0.25 0"/>
<feBlend mode="normal" in2="BackgroundImageFix" result="effect1_dropShadow_393_438"/>
<feBlend mode="normal" in="SourceGraphic" in2="effect1_dropShadow_393_438" result="shape"/>
</filter>
<filter id="filter4_d_393_438" x="131.116" y="167.616" width="33.6255" height="26.6182" filterUnits="userSpaceOnUse" color-interpolation-filters="sRGB">
<feFlood flood-opacity="0" result="BackgroundImageFix"/>
<feColorMatrix in="SourceAlpha" type="matrix" values="0 0 0 0 0 0 0 0 0 0 0 0 0 0 0 0 0 0 127 0" result="hardAlpha"/>
<feOffset dy="4"/>
<feGaussianBlur stdDeviation="2"/>
<feComposite in2="hardAlpha" operator="out"/>
<feColorMatrix type="matrix" values="0 0 0 0 0 0 0 0 0 0 0 0 0 0 0 0 0 0 0.25 0"/>
<feBlend mode="normal" in2="BackgroundImageFix" result="effect1_dropShadow_393_438"/>
<feBlend mode="normal" in="SourceGraphic" in2="effect1_dropShadow_393_438" result="shape"/>
</filter>
<filter id="filter5_d_393_438" x="149.753" y="183.907" width="14.9888" height="14.9818" filterUnits="userSpaceOnUse" color-interpolation-filters="sRGB">
<feFlood flood-opacity="0" result="BackgroundImageFix"/>
<feColorMatrix in="SourceAlpha" type="matrix" values="0 0 0 0 0 0 0 0 0 0 0 0 0 0 0 0 0 0 127 0" result="hardAlpha"/>
<feOffset dy="4"/>
<feGaussianBlur stdDeviation="2"/>
<feComposite in2="hardAlpha" operator="out"/>
<feColorMatrix type="matrix" values="0 0 0 0 0 0 0 0 0 0 0 0 0 0 0 0 0 0 0.25 0"/>
<feBlend mode="normal" in2="BackgroundImageFix" result="effect1_dropShadow_393_438"/>
<feBlend mode="normal" in="SourceGraphic" in2="effect1_dropShadow_393_438" result="shape"/>
</filter>
<filter id="filter6_d_393_438" x="187.026" y="155.979" width="38.2847" height="34.7636" filterUnits="userSpaceOnUse" color-interpolation-filters="sRGB">
<feFlood flood-opacity="0" result="BackgroundImageFix"/>
<feColorMatrix in="SourceAlpha" type="matrix" values="0 0 0 0 0 0 0 0 0 0 0 0 0 0 0 0 0 0 127 0" result="hardAlpha"/>
<feOffset dy="4"/>
<feGaussianBlur stdDeviation="2"/>
<feComposite in2="hardAlpha" operator="out"/>
<feColorMatrix type="matrix" values="0 0 0 0 0 0 0 0 0 0 0 0 0 0 0 0 0 0 0.25 0"/>
<feBlend mode="normal" in2="BackgroundImageFix" result="effect1_dropShadow_393_438"/>
<feBlend mode="normal" in="SourceGraphic" in2="effect1_dropShadow_393_438" result="shape"/>
</filter>
<filter id="filter7_d_393_438" x="118.303" y="154.816" width="41.7791" height="41.7454" filterUnits="userSpaceOnUse" color-interpolation-filters="sRGB">
<feFlood flood-opacity="0" result="BackgroundImageFix"/>
<feColorMatrix in="SourceAlpha" type="matrix" values="0 0 0 0 0 0 0 0 0 0 0 0 0 0 0 0 0 0 127 0" result="hardAlpha"/>
<feOffset dy="4"/>
<feGaussianBlur stdDeviation="2"/>
<feComposite in2="hardAlpha" operator="out"/>
<feColorMatrix type="matrix" values="0 0 0 0 0 0 0 0 0 0 0 0 0 0 0 0 0 0 0.25 0"/>
<feBlend mode="normal" in2="BackgroundImageFix" result="effect1_dropShadow_393_438"/>
<feBlend mode="normal" in="SourceGraphic" in2="effect1_dropShadow_393_438" result="shape"/>
</filter>
<filter id="filter8_d_393_438" x="120.633" y="186.234" width="13.824" height="12.6546" filterUnits="userSpaceOnUse" color-interpolation-filters="sRGB">
<feFlood flood-opacity="0" result="BackgroundImageFix"/>
<feColorMatrix in="SourceAlpha" type="matrix" values="0 0 0 0 0 0 0 0 0 0 0 0 0 0 0 0 0 0 127 0" result="hardAlpha"/>
<feOffset dy="4"/>
<feGaussianBlur stdDeviation="2"/>
<feComposite in2="hardAlpha" operator="out"/>
<feColorMatrix type="matrix" values="0 0 0 0 0 0 0 0 0 0 0 0 0 0 0 0 0 0 0.25 0"/>
<feBlend mode="normal" in2="BackgroundImageFix" result="effect1_dropShadow_393_438"/>
<feBlend mode="normal" in="SourceGraphic" in2="effect1_dropShadow_393_438" result="shape"/>
</filter>
<filter id="filter9_d_393_438" x="126.457" y="114.089" width="108.172" height="66.1818" filterUnits="userSpaceOnUse" color-interpolation-filters="sRGB">
<feFlood flood-opacity="0" result="BackgroundImageFix"/>
<feColorMatrix in="SourceAlpha" type="matrix" values="0 0 0 0 0 0 0 0 0 0 0 0 0 0 0 0 0 0 127 0" result="hardAlpha"/>
<feOffset dy="4"/>
<feGaussianBlur stdDeviation="2"/>
<feComposite in2="hardAlpha" operator="out"/>
<feColorMatrix type="matrix" values="0 0 0 0 0 0 0 0 0 0 0 0 0 0 0 0 0 0 0.25 0"/>
<feBlend mode="normal" in2="BackgroundImageFix" result="effect1_dropShadow_393_438"/>
<feBlend mode="normal" in="SourceGraphic" in2="effect1_dropShadow_393_438" result="shape"/>
</filter>
<clipPath id="clip0_393_438">
<rect width="311" height="192" fill="white"/>
</clipPath>
</defs>
</svg>
